# xmcd
#
# Track frame offsets:
#	151
#	20331
#	62790
#	87215
#	113844
#	139524
#	166863
#
# Disc length: 2678 seconds
#
# Revision: 0
# Processed by: cddbd v1.4PL0 Copyright (c) Steve Scherf et al.
# Submitted via: EasyCDDAExtractor 4.6.0.1
#
DISCID=4f0a7407
DTITLE=Gerardo Nuñez - Jucal
DYEAR=1994
DGENRE=Blus
TTITLE0=Jucal (buleria)
TTITLE1=Hacia mi (rondeña-buleria)
TTITLE2=Remache (seguirilla)
TTITLE3=Marques de Porrina (tangos)
TTITLE4=Piedras negras (taranta-solea por buleria)
TTITLE5=Trafalgar (buleria)
TTITLE6=Isa (tangos-rumba)
EXTD=
EXTT0=
EXTT1=
EXTT2=
EXTT3=
EXTT4=
EXTT5=
EXTT6=
PLAYORDER=
